<svg xmlns="http://www.w3.org/2000/svg" viewBox="0 0 381.21 75.84"><defs><style>.cls-1{fill:#585955;}</style></defs><g id="Layer_2" data-name="Layer 2"><g id="Gris_sobre_Amarillo" data-name="Gris sobre Amarillo"><path class="cls-1" d="M72.67,29.51,68.6,36.56a.6.6,0,0,1-1,0l-4.07-7a.61.61,0,0,0-1,0l-4.07,7.05a.6.6,0,0,1-1,0l-3.87-6.69a.84.84,0,0,0-1.46,0L47.86,37a.61.61,0,0,0,.52.91h.81a.83.83,0,0,1,.84.88,12.16,12.16,0,0,1-14.57,11A11.87,11.87,0,0,1,26,40.28,12.18,12.18,0,0,1,37.92,25.76h1.43a1.21,1.21,0,0,0,1.21-1.2V1.21A1.21,1.21,0,0,0,39.35,0h-.67C18.72,0,1.59,15.12.11,35a37.92,37.92,0,1,0,75.72,3.72.83.83,0,0,1,.84-.82h.86a.61.61,0,0,0,.52-.91l-4.33-7.5A.61.61,0,0,0,72.67,29.51ZM35.27,20a.85.85,0,0,1-.69.83A17.44,17.44,0,1,0,55.34,38.73a.84.84,0,0,1,.83-.81h3.27a.84.84,0,0,1,.85.87,22.39,22.39,0,1,1-26-22.95.85.85,0,0,1,1,.84ZM34.22,70.35a32.63,32.63,0,0,1,.12-64.86.85.85,0,0,1,.93.85V9.62a.83.83,0,0,1-.74.82,27.69,27.69,0,1,0,31.06,28.3.83.83,0,0,1,.84-.82h3.26a.85.85,0,0,1,.85.86A32.67,32.67,0,0,1,34.22,70.35Z"/><path class="cls-1" d="M98.58,54.34a.91.91,0,0,1-.65-.26.89.89,0,0,1-.27-.65V28.65a.93.93,0,0,1,.27-.69.87.87,0,0,1,.65-.26h9.86a11.4,11.4,0,0,1,7.27,2.12A7.52,7.52,0,0,1,118.37,36,7.63,7.63,0,0,1,117,40.72a7.84,7.84,0,0,1-3.71,2.7l5.56,9.7a1.08,1.08,0,0,1,.12.42.73.73,0,0,1-.26.57.74.74,0,0,1-.55.23h-3.46a1.38,1.38,0,0,1-1-.34,3.19,3.19,0,0,1-.53-.69l-4.92-9H103v9.14a1,1,0,0,1-.24.65.9.9,0,0,1-.67.26ZM103,40h5.37a5,5,0,0,0,3.47-1.05A3.79,3.79,0,0,0,112.93,36a4,4,0,0,0-1.12-3,4.88,4.88,0,0,0-3.49-1.08H103Z"/><path class="cls-1" d="M124.2,54.34a.91.91,0,0,1-.65-.26.89.89,0,0,1-.27-.65V28.65a.93.93,0,0,1,.27-.69.87.87,0,0,1,.65-.26h16.74a.93.93,0,0,1,.69.26,1,1,0,0,1,.27.69v2.51a.93.93,0,0,1-.27.65,1,1,0,0,1-.69.26H128.42v6.74h11.69a.94.94,0,0,1,.68.25.87.87,0,0,1,.27.66v2.37a.85.85,0,0,1-.27.66.94.94,0,0,1-.68.25H128.42v7h12.83a.9.9,0,0,1,.68.27.93.93,0,0,1,.27.68v2.52a.89.89,0,0,1-.27.65.93.93,0,0,1-.68.26Z"/><path class="cls-1" d="M154.5,54.34a1.42,1.42,0,0,1-1-.3,1.68,1.68,0,0,1-.49-.77L144.9,28.84a1,1,0,0,1-.07-.35.77.77,0,0,1,.22-.57.81.81,0,0,1,.58-.22H149a1.1,1.1,0,0,1,.82.28,1.4,1.4,0,0,1,.37.55l6.43,19.61L163,28.53a1.48,1.48,0,0,1,.36-.55,1.12,1.12,0,0,1,.82-.28h3.35a.77.77,0,0,1,.55.22.72.72,0,0,1,.25.57,1,1,0,0,1-.07.35l-8.15,24.43a1.69,1.69,0,0,1-.5.77,1.39,1.39,0,0,1-.95.3Z"/><path class="cls-1" d="M181.83,54.72A13.85,13.85,0,0,1,176,53.6a8.38,8.38,0,0,1-3.8-3.46,12.2,12.2,0,0,1-1.49-5.85c0-1.09,0-2.17,0-3.23s0-2.16,0-3.28A11.94,11.94,0,0,1,172.23,32a9,9,0,0,1,3.87-3.5,14.53,14.53,0,0,1,11.47,0,9,9,0,0,1,3.89,3.5A11.72,11.72,0,0,1,193,37.78c.05,1.12.08,2.21.08,3.28s0,2.14-.08,3.23a12.09,12.09,0,0,1-1.49,5.85,8.32,8.32,0,0,1-3.82,3.46A14,14,0,0,1,181.83,54.72Zm0-4.37a5.68,5.68,0,0,0,4-1.47q1.56-1.47,1.68-4.78c.05-1.11.08-2.15.08-3.1s0-2-.08-3.06a8.25,8.25,0,0,0-.82-3.6,4.59,4.59,0,0,0-2-2,6.37,6.37,0,0,0-2.89-.63,6.3,6.3,0,0,0-2.86.63,4.52,4.52,0,0,0-2,2,8,8,0,0,0-.82,3.6c0,1.09,0,2.11,0,3.06s0,2,0,3.1q.1,3.32,1.67,4.78A5.64,5.64,0,0,0,181.83,50.35Z"/><path class="cls-1" d="M199,54.34a.9.9,0,0,1-.92-.91V28.61a.89.89,0,0,1,.27-.65.85.85,0,0,1,.65-.26h3.54a.86.86,0,0,1,.64.26.89.89,0,0,1,.27.65v21.2h12.06a.92.92,0,0,1,.69.27.9.9,0,0,1,.27.69v2.66a.89.89,0,0,1-.27.65,1,1,0,0,1-.69.26Z"/><path class="cls-1" d="M230.17,54.72a13.62,13.62,0,0,1-5.75-1.12,8.21,8.21,0,0,1-3.77-3.46,12.14,12.14,0,0,1-1.33-6V28.65a.93.93,0,0,1,.27-.69.86.86,0,0,1,.64-.26h3.47a.83.83,0,0,1,.66.26,1,1,0,0,1,.25.69V44.14a6.33,6.33,0,0,0,1.49,4.62,5.44,5.44,0,0,0,4.07,1.51,5.35,5.35,0,0,0,4.05-1.51,6.37,6.37,0,0,0,1.47-4.62V28.65A1,1,0,0,1,236,28a.93.93,0,0,1,.69-.26h3.43a.85.85,0,0,1,.66.26,1,1,0,0,1,.25.69V44.14a12.26,12.26,0,0,1-1.31,6,8.12,8.12,0,0,1-3.73,3.46A13.59,13.59,0,0,1,230.17,54.72Z"/><path class="cls-1" d="M257,54.72a13.18,13.18,0,0,1-6-1.24A8.71,8.71,0,0,1,247.22,50a12.56,12.56,0,0,1-1.45-5.55c0-1,0-2.15,0-3.34s0-2.34,0-3.43a12.45,12.45,0,0,1,1.47-5.52A8.71,8.71,0,0,1,251,28.55a13.19,13.19,0,0,1,6-1.24,14.51,14.51,0,0,1,4.64.69,10.57,10.57,0,0,1,3.5,1.89,8.46,8.46,0,0,1,2.25,2.79,8.13,8.13,0,0,1,.84,3.46.68.68,0,0,1-.21.58.85.85,0,0,1-.59.22h-3.62a1,1,0,0,1-.68-.21,1.12,1.12,0,0,1-.38-.7,5.28,5.28,0,0,0-2.1-3.43,6.91,6.91,0,0,0-3.69-.91,5.71,5.71,0,0,0-4.07,1.43c-1,1-1.56,2.52-1.64,4.7s-.08,4.22,0,6.4.62,3.75,1.64,4.7a5.71,5.71,0,0,0,4.07,1.43,6.93,6.93,0,0,0,3.71-.94,5.18,5.18,0,0,0,2.08-3.4,1.13,1.13,0,0,1,.38-.73,1.19,1.19,0,0,1,.68-.19h3.62a.86.86,0,0,1,.59.23.66.66,0,0,1,.21.57,8.1,8.1,0,0,1-.84,3.46,8.49,8.49,0,0,1-2.25,2.8,10.75,10.75,0,0,1-3.5,1.89A14.51,14.51,0,0,1,257,54.72Z"/><path class="cls-1" d="M273.64,54.34a.92.92,0,0,1-.65-.26.88.88,0,0,1-.26-.65V28.61a.89.89,0,0,1,.91-.91h3.58a.87.87,0,0,1,.67.26,1,1,0,0,1,.24.65V53.43a1,1,0,0,1-.24.65.9.9,0,0,1-.67.26Z"/><path class="cls-1" d="M294.35,54.72a13.85,13.85,0,0,1-5.83-1.12,8.38,8.38,0,0,1-3.8-3.46,12.2,12.2,0,0,1-1.49-5.85c0-1.09,0-2.17,0-3.23s0-2.16,0-3.28A11.94,11.94,0,0,1,284.75,32a9.1,9.1,0,0,1,3.87-3.5,13.14,13.14,0,0,1,5.73-1.18,13.33,13.33,0,0,1,5.75,1.18A9.07,9.07,0,0,1,304,32a11.72,11.72,0,0,1,1.52,5.79c.05,1.12.08,2.21.08,3.28s0,2.14-.08,3.23A12.2,12.2,0,0,1,304,50.14a8.4,8.4,0,0,1-3.83,3.46A13.89,13.89,0,0,1,294.35,54.72Zm0-4.37a5.68,5.68,0,0,0,4-1.47c1.05-1,1.6-2.57,1.68-4.78.05-1.11.08-2.15.08-3.1s0-2-.08-3.06a8.25,8.25,0,0,0-.82-3.6,4.59,4.59,0,0,0-2-2,6.87,6.87,0,0,0-5.75,0,4.52,4.52,0,0,0-2,2,8,8,0,0,0-.82,3.6c0,1.09,0,2.11,0,3.06s0,2,0,3.1q.1,3.32,1.67,4.78A5.64,5.64,0,0,0,294.35,50.35Z"/><path class="cls-1" d="M311.48,54.34a.91.91,0,0,1-.65-.26.89.89,0,0,1-.27-.65V28.65a.93.93,0,0,1,.27-.69.87.87,0,0,1,.65-.26h2.93a1.1,1.1,0,0,1,.78.24,3.13,3.13,0,0,1,.32.37l11,17.05V28.65a1,1,0,0,1,.24-.69.85.85,0,0,1,.67-.26h3.19a.91.91,0,0,1,.69.26.93.93,0,0,1,.27.69V53.39a.93.93,0,0,1-.27.69.9.9,0,0,1-.64.26h-3a.94.94,0,0,1-.75-.26,2.73,2.73,0,0,0-.35-.35L315.63,37.06V53.43a.93.93,0,0,1-.27.65,1,1,0,0,1-.68.26Z"/><path class="cls-1" d="M338.39,54.34a.91.91,0,0,1-.65-.26.89.89,0,0,1-.27-.65V28.65a.93.93,0,0,1,.27-.69.87.87,0,0,1,.65-.26h16.75a.92.92,0,0,1,.68.26.93.93,0,0,1,.27.69v2.51a.89.89,0,0,1-.27.65,1,1,0,0,1-.68.26H342.62v6.74H354.3a.92.92,0,0,1,.68.25.87.87,0,0,1,.27.66v2.37a.85.85,0,0,1-.27.66.92.92,0,0,1-.68.25H342.62v7h12.82a.93.93,0,0,1,.69.27.92.92,0,0,1,.26.68v2.52a.88.88,0,0,1-.26.65,1,1,0,0,1-.69.26Z"/><path class="cls-1" d="M370.4,54.72a14.88,14.88,0,0,1-5.92-1,8.69,8.69,0,0,1-3.62-2.75,6.41,6.41,0,0,1-1.31-3.55.82.82,0,0,1,.23-.58.78.78,0,0,1,.57-.23h3.39a1.17,1.17,0,0,1,.74.21,2.47,2.47,0,0,1,.44.52,3.85,3.85,0,0,0,.87,1.43,5.19,5.19,0,0,0,1.77,1.16,7.74,7.74,0,0,0,2.84.46,7.35,7.35,0,0,0,4.09-.92A2.84,2.84,0,0,0,375.84,47a2.28,2.28,0,0,0-.72-1.77A6.63,6.63,0,0,0,372.9,44a37.24,37.24,0,0,0-4-1.16,22.13,22.13,0,0,1-4.77-1.66,7.14,7.14,0,0,1-2.89-2.45,6.75,6.75,0,0,1-1-3.77A6.73,6.73,0,0,1,361.47,31a8.1,8.1,0,0,1,3.43-2.7,13,13,0,0,1,5.31-1,13.35,13.35,0,0,1,4.38.67,9.66,9.66,0,0,1,3.16,1.75,8.08,8.08,0,0,1,1.92,2.33,5.38,5.38,0,0,1,.7,2.41.76.76,0,0,1-.21.55.71.71,0,0,1-.59.25H376a1.4,1.4,0,0,1-.61-.15,1.12,1.12,0,0,1-.49-.57,3.17,3.17,0,0,0-1.48-2,5.73,5.73,0,0,0-3.24-.84,6.22,6.22,0,0,0-3.31.77,2.55,2.55,0,0,0-1.26,2.35,2.58,2.58,0,0,0,.63,1.78,5.07,5.07,0,0,0,2,1.23A35.55,35.55,0,0,0,372,39a26.7,26.7,0,0,1,5.29,1.68,7,7,0,0,1,3,2.41,6.75,6.75,0,0,1,.95,3.71,6.87,6.87,0,0,1-1.35,4.29,8.54,8.54,0,0,1-3.79,2.72A15.59,15.59,0,0,1,370.4,54.72Z"/></g></g></svg>