<?xml version="1.0" encoding="UTF-8" standalone="no"?>
<svg
   xmlns:dc="http://purl.org/dc/elements/1.1/"
   xmlns:cc="http://creativecommons.org/ns#"
   xmlns:rdf="http://www.w3.org/1999/02/22-rdf-syntax-ns#"
   xmlns:svg="http://www.w3.org/2000/svg"
   xmlns="http://www.w3.org/2000/svg"
   viewBox="0 0 666.66669 666.66669"
   height="666.66669"
   width="666.66669"
   xml:space="preserve"
   id="svg2"
   version="1.1"><metadata
     id="metadata8"><rdf:RDF><cc:Work
         rdf:about=""><dc:format>image/svg+xml</dc:format><dc:type
           rdf:resource="http://purl.org/dc/dcmitype/StillImage" /></cc:Work></rdf:RDF></metadata><defs
     id="defs6"><clipPath
       id="clipPath18"
       clipPathUnits="userSpaceOnUse"><path
         id="path16"
         d="M 0,500 H 500 V 0 H 0 Z" /></clipPath></defs><g
     transform="matrix(1.3333333,0,0,-1.3333333,0,666.66667)"
     id="g10"><g
       id="g12"><g
         clip-path="url(#clipPath18)"
         id="g14"><g
           transform="translate(238.3579,172.1377)"
           id="g20"><path
             id="path22"
             style="fill:#009a00;fill-opacity:1;fill-rule:nonzero;stroke:none"
             d="m 0,0 c -36.723,4.06 -65.974,34.127 -69.159,70.936 -3.752,43.362 28.055,80.292 69.442,84.807 1.196,0.131 2.245,-0.835 2.245,-2.039 v -7.874 c 0,-1.025 -0.771,-1.865 -1.789,-1.991 -34.659,-4.264 -61.178,-35.315 -58.092,-71.719 2.757,-32.51 29.512,-58.602 62.078,-60.593 37.863,-2.314 69.509,27.252 70.603,64.364 0.032,1.102 0.908,1.986 2.011,1.986 h 7.829 c 1.141,0 2.083,-0.945 2.053,-2.085 C 86.037,30.629 46.462,-5.136 0,0 m 2.528,120.956 c 0,-0.98 -0.707,-1.794 -1.668,-1.981 -19.253,-3.757 -33.862,-20.769 -33.862,-41.098 0,-23.116 18.794,-41.882 41.881,-41.882 22.429,0 40.807,17.71 41.837,39.915 0.05,1.093 0.913,1.967 2.008,1.967 h 7.839 c 1.145,0 2.094,-0.951 2.05,-2.094 C 61.509,47.08 37.821,24.104 8.879,24.104 c -29.642,0 -53.773,24.102 -53.773,53.773 0,26.686 19.562,48.837 45.083,53.009 1.226,0.2 2.339,-0.788 2.339,-2.029 z M 92.344,98.064 82.558,81.124 c -0.558,-0.967 -1.953,-0.967 -2.512,0 L 70.26,98.065 c -0.557,0.966 -1.953,0.966 -2.51,0 L 57.962,81.124 c -0.557,-0.967 -1.952,-0.967 -2.51,0 l -9.284,16.07 c -0.782,1.353 -2.735,1.353 -3.516,-0.001 L 32.758,80.052 c -0.558,-0.967 0.14,-2.175 1.256,-2.175 h 1.928 c 1.154,0 2.123,-0.966 2.04,-2.116 C 36.759,58.752 20.914,45.75 2.974,49.281 -8.704,51.58 -17.537,60.512 -19.758,72.205 c -3.522,18.536 10.681,34.85 28.637,34.85 h 3.453 c 1.601,0 2.899,1.299 2.899,2.9 v 56.065 c 0,1.602 -1.298,2.9 -2.899,2.9 h -1.621 c -47.918,0 -89.052,-36.303 -92.615,-84.087 -3.979,-53.366 38.279,-98.028 90.783,-98.028 49.541,0 89.989,39.763 91.052,89.082 0.024,1.103 0.902,1.99 2.006,1.99 h 2.059 c 1.116,0 1.813,1.208 1.255,2.175 L 94.856,98.063 c -0.559,0.968 -1.953,0.968 -2.512,10e-4" /></g></g></g></g></svg>