<svg xmlns="http://www.w3.org/2000/svg" viewBox="0 0 283.06 27.36"><defs><style>.cls-1{fill:#585955;}</style></defs><g id="Layer_2" data-name="Layer 2"><g id="Gris_sobre_Amarillo" data-name="Gris sobre Amarillo"><path class="cls-1" d="M.91,27A.9.9,0,0,1,0,26.07V1.33A.91.91,0,0,1,.27.65.85.85,0,0,1,.91.38h9.85A11.28,11.28,0,0,1,18,2.51a7.45,7.45,0,0,1,2.66,6.2,7.63,7.63,0,0,1-1.38,4.67,7.84,7.84,0,0,1-3.71,2.7l5.55,9.69a.9.9,0,0,1,.12.42.75.75,0,0,1-.25.56.78.78,0,0,1-.56.23H17a1.34,1.34,0,0,1-1-.34,3.15,3.15,0,0,1-.53-.68l-4.91-9H5.28v9.12a1,1,0,0,1-.24.65.9.9,0,0,1-.67.26ZM5.28,12.65h5.36a5,5,0,0,0,3.46-1,3.79,3.79,0,0,0,1.14-2.95,4,4,0,0,0-1.12-3A4.87,4.87,0,0,0,10.64,4.6H5.28Z"/><path class="cls-1" d="M26.49,27a.91.91,0,0,1-.65-.26.93.93,0,0,1-.27-.65V1.33a1,1,0,0,1,.27-.68.88.88,0,0,1,.65-.27H43.21a.93.93,0,0,1,.68.27.91.91,0,0,1,.27.68V3.84a.89.89,0,0,1-.27.65,1,1,0,0,1-.68.26H30.71v6.73H42.37a1,1,0,0,1,.69.24.9.9,0,0,1,.26.67v2.36a.88.88,0,0,1-.26.66,1,1,0,0,1-.69.25H30.71v7h12.8a.9.9,0,0,1,.68.27.91.91,0,0,1,.27.68v2.51a.89.89,0,0,1-.27.65.93.93,0,0,1-.68.26Z"/><path class="cls-1" d="M56.74,27a1.39,1.39,0,0,1-1-.3,1.72,1.72,0,0,1-.5-.76L47.16,1.52a.94.94,0,0,1-.07-.34.77.77,0,0,1,.22-.57.78.78,0,0,1,.57-.23h3.34A1.11,1.11,0,0,1,52,.67a1.3,1.3,0,0,1,.36.55l6.43,19.57L65.25,1.22a1.3,1.3,0,0,1,.36-.55,1.11,1.11,0,0,1,.82-.29h3.34a.8.8,0,0,1,.55.23.76.76,0,0,1,.25.57.79.79,0,0,1-.08.34l-8.13,24.4a1.7,1.7,0,0,1-.49.76,1.41,1.41,0,0,1-.95.3Z"/><path class="cls-1" d="M84,27.36a13.72,13.72,0,0,1-5.81-1.12,8.33,8.33,0,0,1-3.8-3.46A12,12,0,0,1,72.93,17c0-1.09,0-2.17,0-3.23s0-2.15,0-3.27a11.79,11.79,0,0,1,1.51-5.78A9,9,0,0,1,78.3,1.18,13,13,0,0,1,84,0a13.14,13.14,0,0,1,5.74,1.18,9,9,0,0,1,3.88,3.49,11.79,11.79,0,0,1,1.51,5.78c0,1.12.08,2.2.08,3.27s0,2.14-.08,3.23a12,12,0,0,1-1.48,5.83,8.35,8.35,0,0,1-3.81,3.46A14,14,0,0,1,84,27.36ZM84,23a5.67,5.67,0,0,0,4-1.46q1.56-1.47,1.67-4.77c0-1.11.08-2.14.08-3.09s0-2-.08-3.06A8.29,8.29,0,0,0,88.91,7a4.57,4.57,0,0,0-2-2,6.85,6.85,0,0,0-5.74,0,4.5,4.5,0,0,0-2,2,8.14,8.14,0,0,0-.82,3.6c0,1.08,0,2.11,0,3.06s0,2,0,3.09q.11,3.3,1.67,4.77A5.62,5.62,0,0,0,84,23Z"/><path class="cls-1" d="M101.12,27a.87.87,0,0,1-.64-.26.89.89,0,0,1-.27-.65V1.29a.87.87,0,0,1,.27-.64.84.84,0,0,1,.64-.27h3.54a.87.87,0,0,1,.64.27.86.86,0,0,1,.26.64V22.46h12a.91.91,0,0,1,1,.95v2.66a.92.92,0,0,1-.26.65,1,1,0,0,1-.69.26Z"/><path class="cls-1" d="M132.28,27.36a13.53,13.53,0,0,1-5.73-1.12,8.16,8.16,0,0,1-3.77-3.46,12,12,0,0,1-1.33-6V1.33a.91.91,0,0,1,.27-.68.87.87,0,0,1,.64-.27h3.46a.84.84,0,0,1,.66.27.94.94,0,0,1,.25.68V16.8a6.35,6.35,0,0,0,1.49,4.62,6.23,6.23,0,0,0,8.11,0,6.43,6.43,0,0,0,1.46-4.62V1.33a.91.91,0,0,1,.27-.68.9.9,0,0,1,.68-.27h3.42a.87.87,0,0,1,.67.27,1,1,0,0,1,.24.68V16.8a12,12,0,0,1-1.31,6A8,8,0,0,1,138,26.24,13.54,13.54,0,0,1,132.28,27.36Z"/><path class="cls-1" d="M159,27.36a13.22,13.22,0,0,1-6-1.23,8.72,8.72,0,0,1-3.75-3.53,12.38,12.38,0,0,1-1.44-5.54c0-1,0-2.15,0-3.34s0-2.33,0-3.42a12.11,12.11,0,0,1,1.47-5.51,8.61,8.61,0,0,1,3.76-3.55A13,13,0,0,1,159,0a14.8,14.8,0,0,1,4.64.68,10.7,10.7,0,0,1,3.49,1.89,8.56,8.56,0,0,1,2.25,2.79,8.13,8.13,0,0,1,.84,3.46.66.66,0,0,1-.21.57.87.87,0,0,1-.6.22h-3.6a1,1,0,0,1-.69-.21,1.17,1.17,0,0,1-.38-.69,5.21,5.21,0,0,0-2.09-3.43A6.9,6.9,0,0,0,159,4.37a5.71,5.71,0,0,0-4.07,1.43q-1.52,1.42-1.64,4.69t0,6.38c.08,2.19.63,3.75,1.64,4.7A5.7,5.7,0,0,0,159,23a6.91,6.91,0,0,0,3.7-.93,5.11,5.11,0,0,0,2.07-3.4,1.12,1.12,0,0,1,.38-.72,1.15,1.15,0,0,1,.69-.19h3.6a.84.84,0,0,1,.6.23.65.65,0,0,1,.21.56,8.06,8.06,0,0,1-.84,3.46,8.49,8.49,0,0,1-2.25,2.8,10.88,10.88,0,0,1-3.49,1.88A14.51,14.51,0,0,1,159,27.36Z"/><path class="cls-1" d="M175.68,27a.92.92,0,0,1-.65-.26.88.88,0,0,1-.26-.65V1.29A.86.86,0,0,1,175,.65a.89.89,0,0,1,.65-.27h3.57a.87.87,0,0,1,.67.27.93.93,0,0,1,.24.64V26.07a1,1,0,0,1-.24.65.9.9,0,0,1-.67.26Z"/><path class="cls-1" d="M196.35,27.36a13.72,13.72,0,0,1-5.81-1.12,8.33,8.33,0,0,1-3.8-3.46A12.12,12.12,0,0,1,185.25,17c0-1.09,0-2.17,0-3.23s0-2.15,0-3.27a11.9,11.9,0,0,1,1.52-5.78,9,9,0,0,1,3.86-3.49A13,13,0,0,1,196.35,0a13.14,13.14,0,0,1,5.74,1.18A9,9,0,0,1,206,4.67a11.68,11.68,0,0,1,1.52,5.78c.05,1.12.08,2.2.08,3.27s0,2.14-.08,3.23A12.12,12.12,0,0,1,206,22.78a8.32,8.32,0,0,1-3.82,3.46A13.88,13.88,0,0,1,196.35,27.36Zm0-4.37a5.67,5.67,0,0,0,4-1.46q1.56-1.47,1.67-4.77c0-1.11.08-2.14.08-3.09s0-2-.08-3.06a8.28,8.28,0,0,0-.82-3.6,4.55,4.55,0,0,0-2-2,6.37,6.37,0,0,0-2.89-.63A6.29,6.29,0,0,0,193.5,5a4.5,4.5,0,0,0-2,2,8.14,8.14,0,0,0-.82,3.6c0,1.08,0,2.11,0,3.06s0,2,0,3.09q.1,3.3,1.67,4.77A5.62,5.62,0,0,0,196.35,23Z"/><path class="cls-1" d="M213.45,27a.87.87,0,0,1-.64-.26.9.9,0,0,1-.28-.65V1.33a.92.92,0,0,1,.28-.68.84.84,0,0,1,.64-.27h2.93a1,1,0,0,1,.77.25,2,2,0,0,1,.32.36l10.95,17V1.33a.94.94,0,0,1,.25-.68.85.85,0,0,1,.66-.27h3.19a.92.92,0,0,1,.69.27.9.9,0,0,1,.26.68V26a.93.93,0,0,1-.26.69.9.9,0,0,1-.64.26h-3a1,1,0,0,1-.76-.26,2.07,2.07,0,0,0-.34-.34L217.59,9.73V26.07a.92.92,0,0,1-.26.65,1,1,0,0,1-.69.26Z"/><path class="cls-1" d="M240.32,27a.91.91,0,0,1-.65-.26.89.89,0,0,1-.27-.65V1.33a.91.91,0,0,1,.27-.68.88.88,0,0,1,.65-.27H257a.93.93,0,0,1,.68.27,1,1,0,0,1,.27.68V3.84a.93.93,0,0,1-.27.65,1,1,0,0,1-.68.26H244.53v6.73H256.2a1,1,0,0,1,.68.24.87.87,0,0,1,.27.67v2.36a.85.85,0,0,1-.27.66.94.94,0,0,1-.68.25H244.53v7h12.81a.9.9,0,0,1,.68.27.91.91,0,0,1,.27.68v2.51a.89.89,0,0,1-.27.65.93.93,0,0,1-.68.26Z"/><path class="cls-1" d="M272.27,27.36a14.82,14.82,0,0,1-5.91-1,8.66,8.66,0,0,1-3.61-2.74A6.41,6.41,0,0,1,261.44,20a.79.79,0,0,1,.8-.8h3.38a1.11,1.11,0,0,1,.74.21,2.19,2.19,0,0,1,.44.51,3.85,3.85,0,0,0,.87,1.43,4.94,4.94,0,0,0,1.77,1.15,7.45,7.45,0,0,0,2.83.46,7.35,7.35,0,0,0,4.09-.91,2.83,2.83,0,0,0,1.34-2.47,2.31,2.31,0,0,0-.71-1.77,7,7,0,0,0-2.23-1.21,36.69,36.69,0,0,0-4-1.16A22.13,22.13,0,0,1,266,13.81a7.16,7.16,0,0,1-2.88-2.44,6.75,6.75,0,0,1-1-3.77,6.65,6.65,0,0,1,1.2-3.91A8.07,8.07,0,0,1,266.78,1a14.64,14.64,0,0,1,9.67-.32,9.48,9.48,0,0,1,3.16,1.75,8.39,8.39,0,0,1,1.92,2.32,5.51,5.51,0,0,1,.7,2.41.82.82,0,0,1-.21.55.75.75,0,0,1-.59.24h-3.54a1.33,1.33,0,0,1-.6-.15,1.08,1.08,0,0,1-.49-.57,3.19,3.19,0,0,0-1.49-2,5.68,5.68,0,0,0-3.23-.84,6.27,6.27,0,0,0-3.3.76,2.57,2.57,0,0,0-1.26,2.36,2.56,2.56,0,0,0,.63,1.77,5.07,5.07,0,0,0,2,1.23,37,37,0,0,0,3.66,1.14,26.64,26.64,0,0,1,5.28,1.67,7,7,0,0,1,3,2.41,6.66,6.66,0,0,1,.95,3.71,6.86,6.86,0,0,1-1.34,4.27,8.54,8.54,0,0,1-3.78,2.72A15.42,15.42,0,0,1,272.27,27.36Z"/></g></g></svg>